<?xml version="1.0" encoding="utf-8"?>
<!-- Generator: Adobe Illustrator 23.0.1, SVG Export Plug-In . SVG Version: 6.00 Build 0)  -->
<svg version="1.1" id="Capa_1" xmlns="http://www.w3.org/2000/svg" xmlns:xlink="http://www.w3.org/1999/xlink" x="0px" y="0px"
	 viewBox="0 0 256 256" style="enable-background:new 0 0 256 256;" xml:space="preserve">
<style type="text/css">
	.st0{fill:#010002;}
</style>
<g>
	<path class="st0" d="M227.1,8H29C13,8,0,21,0,37v182.1C0,235,13,248,29,248h198.1c16,0,28.9-13,28.9-28.9V37C256,21,243,8,227.1,8z
		 M165.5,51.1c15.4,0,28,12.5,28,28s-12.5,28-28,28c-15.4,0-28-12.5-28-28S150.1,51.1,165.5,51.1z M218,221.2h-90H42
		c-7.7,0-11.2-5.6-7.7-12.5l48-95.1c3.5-6.9,10.1-7.5,14.8-1.4l48.3,63.1c4.7,6.1,12.9,6.7,18.3,1.2l11.8-12
		c5.4-5.5,13.4-4.8,17.8,1.5l30.6,43.7C228.4,216.1,225.7,221.2,218,221.2z"/>
</g>
</svg>
